<!--?xml version="1.0" encoding="utf-8"?-->
<!-- Generator: Adobe Illustrator 19.1.1, SVG Export Plug-In . SVG Version: 6.00 Build 0)  -->
<svg version="1.1" id="_x31_0" xmlns="http://www.w3.org/2000/svg" xmlns:xlink="http://www.w3.org/1999/xlink" x="0px" y="0px" viewBox="0 0 512 512" style="width: 512px; height: 512px; opacity: 1;" xml:space="preserve">
<style type="text/css">
	.st0{fill:#374149;}
</style>
<g>
	<path class="st0" d="M0.004,410.392h86.46l-9.172-19.727H54.25v-19.742h19.218c4.922,0,8.883-3.965,8.883-8.886V110.452
		c0-4.879-3.961-8.844-8.883-8.844H12.984c-4.878,0-8.843,3.965-8.843,8.844v251.584c0,4.922,3.965,8.886,8.843,8.886h19.234v19.742
		H9.172l-6.39,13.746L0,410.231h0.078L0.004,410.392z M43.226,129.764c11.805,0,21.398,9.554,21.398,21.355
		c0,11.848-9.594,21.398-21.398,21.398s-21.355-9.55-21.355-21.398C21.871,139.319,31.422,129.764,43.226,129.764z M21.871,221.533
		c0-11.809,9.55-21.402,21.355-21.402s21.398,9.594,21.398,21.402c0,11.805-9.594,21.355-21.398,21.355
		S21.871,233.338,21.871,221.533z" style="fill: rgb(0, 0, 0);"></path>
	<path class="st0" d="M43.226,161.381c5.672,0,10.262-4.59,10.262-10.262c0-5.629-4.59-10.258-10.262-10.258
		s-10.262,4.629-10.262,10.258C32.965,156.792,37.554,161.381,43.226,161.381z M43.226,144.198c0.375,0,0.781,0.05,1.164,0.148
		c0.031,0.02,0.062,0.028,0.094,0.051L39,149.912l-2.543,2.454c-0.106-0.394-0.156-0.817-0.156-1.203
		C36.301,147.323,39.43,144.198,43.226,144.198z" style="fill: rgb(0, 0, 0);"></path>
	<path class="st0" d="M53.488,221.533c0-5.676-4.59-10.266-10.262-10.266s-10.262,4.59-10.262,10.266
		c0,5.672,4.59,10.258,10.262,10.258S53.488,227.205,53.488,221.533z M36.457,222.35c-0.106-0.418-0.156-0.813-0.156-1.238
		c0-3.836,3.129-6.922,6.926-6.922c0.359,0,0.75,0.047,1.121,0.11c0.043,0.02,0.086,0.031,0.129,0.058l-5.382,5.438L36.457,222.35z" style="fill: rgb(0, 0, 0);"></path>
	<path class="st0" d="M512,410.392l-9.172-19.727h-23.046v-19.742h19.222c4.922,0,8.882-3.965,8.882-8.886V110.452
		c0-4.879-3.961-8.844-8.882-8.844H438.52c-4.882,0-8.843,3.965-8.843,8.844v251.584c0,4.922,3.961,8.886,8.843,8.886h19.234v19.742
		h-23.046l-6.367,13.695l-2.805,5.871h0.074l-0.074,0.161H512z M468.762,129.764c11.804,0,21.398,9.554,21.398,21.355
		c0,11.848-9.594,21.398-21.398,21.398c-11.805,0-21.359-9.55-21.359-21.398C447.403,139.319,456.958,129.764,468.762,129.764z
		 M447.403,221.533c0-11.809,9.554-21.402,21.359-21.402c11.804,0,21.398,9.594,21.398,21.402c0,11.805-9.594,21.355-21.398,21.355
		C456.958,242.888,447.403,233.338,447.403,221.533z" style="fill: rgb(0, 0, 0);"></path>
	<path class="st0" d="M468.762,161.381c5.671,0,10.258-4.59,10.258-10.262c0-5.629-4.586-10.258-10.258-10.258
		c-5.676,0-10.262,4.629-10.262,10.258C458.501,156.792,463.086,161.381,468.762,161.381z M468.762,144.198
		c0.374,0,0.777,0.05,1.16,0.148c0.031,0.02,0.066,0.028,0.098,0.051l-5.469,5.5l-2.558,2.465c-0.106-0.39-0.157-0.813-0.157-1.199
		C461.836,147.323,464.966,144.198,468.762,144.198z" style="fill: rgb(0, 0, 0);"></path>
	<path class="st0" d="M479.02,221.533c0-5.676-4.586-10.266-10.258-10.266c-5.676,0-10.262,4.59-10.262,10.266
		c0,5.672,4.586,10.258,10.262,10.258C474.434,231.791,479.02,227.205,479.02,221.533z M461.993,222.35
		c-0.106-0.418-0.157-0.813-0.157-1.238c0-3.836,3.13-6.922,6.926-6.922c0.359,0,0.75,0.047,1.117,0.11
		c0.047,0.02,0.09,0.031,0.133,0.058l-5.367,5.422L461.993,222.35z" style="fill: rgb(0, 0, 0);"></path>
	<path class="st0" d="M116.773,345.001h278.412c2.902,0,5.39-1.473,6.867-3.684c0.874-1.293,1.426-2.906,1.426-4.609V160.655
		c0-4.562-3.688-8.25-8.293-8.25H116.773c-4.562,0-8.25,3.687-8.25,8.25v176.054C108.522,341.271,112.21,345.001,116.773,345.001z
		 M139.307,168.35h62.699l17.984,0.047l-10.906,35.3c-0.922,2.168-0.094,4.75,2.028,5.902c2.258,1.29,5.117,0.457,6.359-1.797
		l16.777-39.453h36.824l12.926,0.058c-8.031,20.688-29.98,77.648-29.98,77.648c-0.782,2.07,0,4.512,1.984,5.711
		c2.211,1.34,5.114,0.602,6.45-1.614c0,0,28.254-61.109,37.793-81.804h72.495v153.975v0.786H139.862h-0.555V168.35z" style="fill: rgb(0, 0, 0);"></path>
	<path class="st0" d="M155.722,380.696h15.855v7.324c0,2.121,1.715,3.84,3.836,3.84h17.25c2.118,0,3.836-1.719,3.836-3.84v-7.324
		h118.823h0.203v7.324c0,2.121,1.719,3.84,3.84,3.84h17.246c2.122,0,3.84-1.719,3.84-3.84v-7.324h15.855
		c2.344,0,4.246-1.902,4.246-4.246v-24.542H151.471v24.542C151.471,378.794,153.374,380.696,155.722,380.696z M334.166,363.939
		c1.473,0,2.668,1.191,2.668,2.664c0,1.476-1.195,2.668-2.668,2.668s-2.664-1.192-2.664-2.668
		C331.502,365.13,332.693,363.939,334.166,363.939z M320.548,363.939c1.473,0,2.664,1.191,2.664,2.664
		c0,1.476-1.191,2.668-2.664,2.668c-1.472,0-2.664-1.192-2.664-2.668C317.884,365.13,319.076,363.939,320.548,363.939z
		 M256.014,360.759c3.226,0,5.844,2.617,5.844,5.844c0,3.23-2.618,5.843-5.844,5.843c-3.23,0-5.844-2.613-5.844-5.843
		C250.17,363.376,252.783,360.759,256.014,360.759z" style="fill: rgb(0, 0, 0);"></path>
</g>
</svg>
