<svg height="512" viewBox="0 0 61 60" width="512" xmlns="http://www.w3.org/2000/svg"><g id="Page-1" fill="none" fill-rule="evenodd"><g id="010---Sunrise" fill="rgb(0,0,0)" fill-rule="nonzero"><path id="Shape" d="m2 60h56.021c1.1045695 0 2-.8954305 2-2v-56c0-1.1045695-.8954305-2-2-2h-56.021c-1.1045695 0-2 .8954305-2 2v56c0 1.1045695.8954305 2 2 2zm8-2h-.022c-.27163936-6.1923973-1.28487273-12.3298789-3.018-18.281-.15519203-.5301933-.71080664-.834192-1.24099999-.679s-.834192.7108066-.67900001 1.241c1.66809491 5.7711148 2.65250677 11.7181976 2.933 17.719h-5.973v-23h6.412c3.5789602 7.144422 5.4847658 15.0097599 5.573 23zm-8-29h6.429c.64207161 1.2560353.64207161 2.7439647 0 4h-6.429zm56.021 4h-6.429c-.6430579-1.2557977-.6430579-2.7442023 0-4h6.429zm-47.109-2h18.088v3h-1.037c-.631088.0042777-1.2181636.3240913-1.564.852-.3814097.5738369-.4508303 1.3003143-.185 1.936.609 1.464-.125 3.084-.9 4.8-.854 1.884-1.872 4.138-.916 6.413h-9.456c-.8987182-4.8783978-2.5163333-9.5964417-4.8-14 .4995764-.9217805.7640557-1.9525628.77-3.001zm16.411-8.466c.5379331-.2207283 1.1012722-.3735723 1.677-.455v6.921h-5.9760186c-.0064835-2.8263965 1.6902476-5.3784001 4.2990186-6.466zm9.6770005 6.466h-6.0000005v-6.921c.5763849.0819121 1.1403671.2350842 1.679.456 2.6161655 1.0817042 4.3220571 3.6340276 4.3210005 6.465zm-4.1320005 13.413c1.071 2.363 1.684 3.948.445 5.584h-6.626c-1.239-1.636-.626-3.221.445-5.584.873-1.923 1.86-4.1.947-6.413h3.869c-.0056298.0056553-.0091581.0130647-.01.021-.938 2.266.052 4.458.93 6.392zm11.589 9.587h-28.894c-.083-.68-.172-1.351-.274-2h29.443c-.103.649-.192 1.32-.275 2zm-28.688 2h28.482c-.111 1.28-.2 2.592-.222 3.964v.036h-28.041c0-.012 0-.024 0-.037-.022-1.372-.107-2.683-.219-3.963zm29.31-6h-9.479c.956-2.275-.062-4.529-.916-6.413-.778-1.715-1.512-3.335-.9-4.8.2668495-.6357488.197779-1.3628659-.184-1.937-.3461018-.5268526-.9326487-.8458321-1.563-.85h-1.037v-3h18.109c.0050238 1.0476161.2677468 2.0779024.765 3-2.2822612 4.4036979-3.8982044 9.1217801-4.795 14zm4.362-19h-10.441c.0011903-3.6389798-2.1907741-6.9200185-5.553-8.312-.782109-.3234556-1.6058582-.5351998-2.447-.629v-9.059h9.36c1.7795075 6.3628064 5.0128249 12.2252269 9.445 17.125-.1428309.2822517-.264499.574723-.364.875zm-29.277-20c.5229617-2.29505001.8097878-4.63757528.856-6.991v-.009h17.98v.009c.0460224 2.35349587.3331901 4.69607428.857 6.991zm-.5 2h9.336v9.059c-4.5541913.504856-7.9970306 4.3589222-7.987 8.941h-10.434c-.0996774-.3005349-.2213394-.5933258-.364-.876 4.4326687-4.8990368 7.6660643-10.7612568 9.445-17.124zm32.384 47c.2799191-6.0007889 1.264-11.9478998 2.932-17.719.1425703-.5255056-.1615024-1.068492-.6840563-1.2215275-.5225538-.1530356-1.0715039.1401338-1.2349437.6595275-1.7338702 5.9509877-2.7474475 12.0885191-3.019 18.281h-4.013c.0976511-7.9898782 2.0054689-15.8536431 5.58-23h6.412v23zm-10.048-56h2.063c.6023138 7.04154649 3.0653977 13.7964774 7.137 19.573.3186123.446557.9374952.5530738 1.3870672.23873.449572-.3143437.5619796-.9321839.2519328-1.38473-3.8072407-5.455785-6.1381059-11.80382694-6.766-18.427h3.988c.319505 4.27114423 1.3464906 8.4595155 3.039 12.394.1326683.3403105.440325.5812161.8025207.628401.3621957.0471848.7213041-.1068584.9367322-.4018209s.2529007-.6839149.0977471-1.0145801c-1.5744073-3.68909652-2.5428686-7.60819046-2.868-11.606h5.952v25h-6.546c-9.589-10.594-10.446-21.8-10.475-25zm-34.047 0c-.32342781 3.99851924-1.29335868 7.91809365-2.872 11.606-.14682346.329423-.10488478.7123845.10975493 1.0022231.21463971.2898387.56872141.441643.92664359.3972771.35792218-.044366.66422378-.2780276.80160148-.6115002 1.69328507-3.9343356 2.72095133-8.12272617 3.041-12.394h3.989c-.6221223 6.62480352-2.9542608 12.9744363-6.768 18.427-.21784487.2921912-.25947205.679762-.10864591 1.0115504s.47021763.5552454.83360397.5832174.71321412-.1439713.91304194-.4487678c4.0737313-5.778191 6.5375925-12.53577632 7.139-19.58h1c.013 0 .024.008.038.008h2.019c-.029 3.218-.892 14.414-10.474 25h-6.541v-25.001z"/><path id="Shape" d="m24.866 19.22c.2112489.5103111.7961889.7527489 1.3065.5415s.7527489-.7961889.5415-1.3065l-.765-1.848c-.2214269-.4935975-.7952475-.7216032-1.2950606-.5145881-.499813.2070152-.7443685.7739802-.5519394 1.2795881z"/><path id="Shape" d="m17.606 24.949 1.848.765c.3316775.1459579.7163639.1010622 1.0055166-.1173512.2891526-.2184134.4375216-.5761647.3878157-.9351117-.0497059-.3589471-.2897082-.6629179-.6273323-.7945371l-1.848-.767c-.3301134-.1368327-.7081502-.087158-.9917075.1303122-.2835573.2174703-.4295561.5696971-.383.9240001.0465561.3543029.2785941.656855.6087075.7936877z"/><path id="Shape" d="m35.357 16.066c-.5100349-.2109975-1.0945733.0311428-1.306.541l-.765 1.848c-.1366541.3301134-.0868143.7080549.1307453.9914575.2175595.2834026.5697863.4292108.924.3825.3542136-.0467108.6566006-.2788441.7932547-.6089575l.764-1.848c.2109975-.5100349-.0311428-1.0945733-.541-1.306z"/><path id="Shape" d="m39.78 23.867c-.3376241.1316192-.5776264.43559-.6273323.7945371-.0497059.358947.0986631.7166983.3878157.9351117.2891527.2184134.6738391.2633091 1.0055166.1173512l1.848-.765c.3301134-.1368327.5621514-.4393848.6087075-.7936877.0465561-.354303-.0994427-.7065298-.383-.924-.2835573-.2174703-.6615941-.267145-.9917075-.1303123z"/></g></g></svg>