<?xml version="1.0" standalone="no"?><!-- Generator: Gravit.io --><svg xmlns="http://www.w3.org/2000/svg" xmlns:xlink="http://www.w3.org/1999/xlink" style="isolation:isolate" viewBox="670 661.425 19.193 20" width="19.193" height="20"><g><g><path d=" M 681.877 678.902 L 681.877 679.487 C 681.877 679.952 681.535 680.339 681.091 680.404 L 680.947 680.935 C 680.868 681.223 680.609 681.425 680.309 681.425 L 678.881 681.425 C 678.58 681.425 678.321 681.223 678.243 680.935 L 678.103 680.404 C 677.654 680.334 677.313 679.952 677.313 679.483 L 677.313 678.898 C 677.313 678.585 677.564 678.334 677.877 678.334 L 681.313 678.334 C 681.626 678.339 681.877 678.59 681.877 678.902 Z  M 684.523 671.026 C 684.523 672.355 683.996 673.561 683.14 674.446 C 682.49 675.12 682.07 675.981 681.93 676.898 C 681.868 677.293 681.527 677.585 681.123 677.585 L 678.066 677.585 C 677.667 677.585 677.321 677.297 677.263 676.902 C 677.119 675.985 676.695 675.112 676.045 674.441 C 675.206 673.569 674.683 672.384 674.671 671.079 C 674.642 668.339 676.823 666.12 679.564 666.1 C 682.3 666.079 684.523 668.293 684.523 671.026 Z  M 680.152 668.042 C 680.152 667.738 679.905 667.487 679.597 667.487 C 677.638 667.487 676.041 669.079 676.041 671.042 C 676.041 671.347 676.288 671.598 676.597 671.598 C 676.901 671.598 677.152 671.351 677.152 671.042 C 677.152 669.692 678.251 668.598 679.597 668.598 C 679.905 668.598 680.152 668.351 680.152 668.042 Z  M 679.597 664.483 C 679.901 664.483 680.152 664.236 680.152 663.927 L 680.152 661.981 C 680.152 661.676 679.905 661.425 679.597 661.425 C 679.288 661.425 679.041 661.672 679.041 661.981 L 679.041 663.927 C 679.041 664.236 679.292 664.483 679.597 664.483 Z  M 673.058 671.022 C 673.058 670.717 672.811 670.466 672.502 670.466 L 670.556 670.466 C 670.251 670.466 670 670.713 670 671.022 C 670 671.326 670.247 671.577 670.556 671.577 L 672.502 671.577 C 672.811 671.577 673.058 671.33 673.058 671.022 Z  M 688.638 670.466 L 686.691 670.466 C 686.387 670.466 686.136 670.713 686.136 671.022 C 686.136 671.326 686.383 671.577 686.691 671.577 L 688.638 671.577 C 688.942 671.577 689.193 671.33 689.193 671.022 C 689.193 670.717 688.947 670.466 688.638 670.466 Z  M 674.189 675.647 L 672.811 677.026 C 672.593 677.244 672.593 677.594 672.811 677.812 C 672.918 677.919 673.062 677.972 673.202 677.972 C 673.342 677.972 673.486 677.919 673.593 677.812 L 674.971 676.433 C 675.189 676.215 675.189 675.865 674.971 675.647 C 674.757 675.429 674.403 675.429 674.189 675.647 Z  M 684.613 666.561 C 684.753 666.561 684.897 666.507 685.004 666.4 L 686.383 665.022 C 686.601 664.804 686.601 664.454 686.383 664.236 C 686.165 664.018 685.815 664.018 685.597 664.236 L 684.218 665.614 C 684 665.832 684 666.182 684.218 666.4 C 684.329 666.507 684.469 666.561 684.613 666.561 Z  M 674.189 666.396 C 674.296 666.503 674.44 666.557 674.58 666.557 C 674.72 666.557 674.864 666.503 674.971 666.396 C 675.189 666.178 675.189 665.828 674.971 665.61 L 673.593 664.232 C 673.374 664.013 673.025 664.013 672.807 664.232 C 672.588 664.45 672.588 664.799 672.807 665.018 L 674.189 666.396 Z  M 685.004 675.647 C 684.786 675.429 684.436 675.429 684.218 675.647 C 684 675.865 684 676.215 684.218 676.433 L 685.597 677.812 C 685.704 677.919 685.848 677.972 685.988 677.972 C 686.128 677.972 686.272 677.919 686.379 677.812 C 686.597 677.594 686.597 677.244 686.379 677.026 L 685.004 675.647 Z " fill-rule="evenodd" fill="rgb(0,0,0)"/></g></g></svg>