<?xml version="1.0" standalone="no"?><!-- Generator: Gravit.io --><svg xmlns="http://www.w3.org/2000/svg" xmlns:xlink="http://www.w3.org/1999/xlink" style="isolation:isolate" viewBox="836 707 18.015 18" width="18.015" height="18"><g><path d=" M 849.072 714.575 L 847.442 714.575 L 846.303 713.436 L 846.305 713.431 C 847.085 713.287 847.675 712.604 847.675 711.783 C 847.675 710.857 846.925 710.107 845.999 710.107 C 845.073 710.107 844.322 710.857 844.322 711.783 C 844.322 712.168 844.452 712.522 844.669 712.804 L 842.586 712.804 C 842.364 712.804 842.151 712.892 841.994 713.049 L 840.342 714.701 C 840.016 715.028 840.016 715.557 840.342 715.883 C 840.669 716.21 841.198 716.21 841.525 715.883 L 842.932 714.476 L 844.138 714.476 L 842.95 719.094 L 841.406 718.518 C 840.973 718.356 840.492 718.576 840.33 719.009 C 840.169 719.441 840.388 719.923 840.821 720.084 L 843.245 720.989 C 843.711 721.163 844.229 720.893 844.349 720.405 L 844.707 718.948 L 847.989 722.23 C 848.316 722.556 848.845 722.556 849.172 722.23 C 849.498 721.903 849.498 721.374 849.172 721.048 L 845.219 717.095 L 845.667 715.164 L 846.505 716.002 C 846.662 716.159 846.874 716.247 847.096 716.247 L 849.072 716.247 C 849.534 716.247 849.908 715.872 849.908 715.411 C 849.908 714.949 849.534 714.575 849.072 714.575 Z " fill="rgb(0,0,0)"/><path d=" M 850.898 717.106 C 851.111 717.318 851.456 717.318 851.669 717.106 C 852.578 716.196 852.578 714.716 851.669 713.806 C 851.456 713.594 851.111 713.594 850.898 713.806 C 850.686 714.019 850.686 714.364 850.898 714.576 C 851.383 715.061 851.383 715.851 850.898 716.336 C 850.686 716.548 850.686 716.893 850.898 717.106 Z " fill="rgb(0,0,0)"/><path d=" M 852.988 717.933 C 853.65 717.271 854.015 716.392 854.015 715.456 C 854.015 714.52 853.65 713.641 852.988 712.979 C 852.776 712.766 852.431 712.766 852.218 712.979 C 852.006 713.192 852.006 713.536 852.218 713.749 C 852.674 714.205 852.925 714.811 852.925 715.456 C 852.925 716.101 852.674 716.707 852.218 717.163 C 852.006 717.376 852.006 717.721 852.218 717.933 C 852.431 718.146 852.776 718.146 852.988 717.933 Z " fill="rgb(0,0,0)"/><path d=" M 839.116 713.806 C 838.904 713.594 838.559 713.594 838.346 713.806 C 837.905 714.247 837.663 714.833 837.663 715.456 C 837.663 716.079 837.905 716.665 838.346 717.106 C 838.559 717.318 838.904 717.318 839.116 717.106 C 839.329 716.893 839.329 716.548 839.116 716.336 C 838.881 716.101 838.752 715.788 838.752 715.456 C 838.752 715.124 838.881 714.811 839.116 714.576 C 839.329 714.364 839.329 714.019 839.116 713.806 Z " fill="rgb(0,0,0)"/><path d=" M 837.026 712.979 C 836.364 713.641 836 714.52 836 715.456 C 836 716.392 836.364 717.272 837.026 717.933 C 837.239 718.146 837.584 718.146 837.796 717.933 C 838.009 717.721 838.009 717.376 837.796 717.163 C 837.34 716.707 837.089 716.101 837.089 715.456 C 837.089 714.811 837.34 714.205 837.796 713.749 C 838.009 713.536 838.009 713.192 837.796 712.979 C 837.584 712.766 837.239 712.766 837.026 712.979 Z " fill="rgb(0,0,0)"/><path d=" M 839.377 707 L 836.569 707 C 836.268 707 836.024 707.244 836.024 707.545 L 836.024 710.353 C 836.024 710.653 836.268 710.897 836.569 710.897 C 836.869 710.897 837.113 710.653 837.113 710.353 L 837.113 708.089 L 839.377 708.089 C 839.677 708.089 839.921 707.845 839.921 707.545 C 839.921 707.244 839.677 707 839.377 707 Z " fill="rgb(0,0,0)"/><path d=" M 850.638 708.089 L 852.901 708.089 L 852.901 710.353 C 852.901 710.653 853.145 710.897 853.446 710.897 C 853.747 710.897 853.99 710.653 853.99 710.353 L 853.99 707.545 C 853.99 707.244 853.747 707 853.446 707 L 850.638 707 C 850.337 707 850.093 707.244 850.093 707.545 C 850.093 707.845 850.337 708.089 850.638 708.089 Z " fill="rgb(0,0,0)"/><path d=" M 853.446 721.103 C 853.145 721.103 852.901 721.347 852.901 721.647 L 852.901 723.911 L 850.638 723.911 C 850.337 723.911 850.093 724.155 850.093 724.455 C 850.093 724.756 850.337 725 850.638 725 L 853.446 725 C 853.747 725 853.99 724.756 853.99 724.455 L 853.99 721.647 C 853.99 721.347 853.747 721.103 853.446 721.103 Z " fill="rgb(0,0,0)"/><path d=" M 839.377 723.911 L 837.113 723.911 L 837.113 721.647 C 837.113 721.347 836.869 721.103 836.569 721.103 C 836.268 721.103 836.024 721.347 836.024 721.647 L 836.024 724.455 C 836.024 724.756 836.268 725 836.569 725 L 839.377 725 C 839.677 725 839.921 724.756 839.921 724.455 C 839.921 724.155 839.677 723.911 839.377 723.911 Z " fill="rgb(0,0,0)"/></g></svg>