<?xml version="1.0" standalone="no"?><!-- Generator: Gravit.io --><svg xmlns="http://www.w3.org/2000/svg" xmlns:xlink="http://www.w3.org/1999/xlink" style="isolation:isolate" viewBox="670.422 710.519 20 10.977" width="20" height="10.977"><g><path d=" M 683.899 715.558 C 683.899 713.638 682.342 712.081 680.422 712.081 C 678.502 712.081 676.946 713.638 676.946 715.558 C 676.946 717.478 678.502 719.034 680.422 719.034 C 682.341 719.032 683.897 717.477 683.899 715.558 Z  M 680.422 718.487 C 678.804 718.487 677.492 717.176 677.492 715.558 C 677.492 713.94 678.804 712.628 680.422 712.628 C 682.04 712.628 683.352 713.94 683.352 715.558 C 683.35 717.175 682.039 718.486 680.422 718.487 L 680.422 718.487 Z " fill="rgb(0,0,0)"/><path d=" M 688.586 711.378 L 683.235 711.378 C 681.535 710.232 679.311 710.232 677.611 711.378 L 672.258 711.378 C 671.245 711.379 670.423 712.2 670.422 713.214 L 670.422 719.464 C 670.422 719.615 670.545 719.737 670.696 719.737 L 671.594 719.737 L 671.594 721.222 C 671.594 721.373 671.717 721.495 671.867 721.495 L 675.227 721.495 C 675.378 721.495 675.5 721.373 675.5 721.222 L 675.5 719.737 L 677.61 719.737 C 679.31 720.883 681.535 720.883 683.234 719.737 L 685.344 719.737 L 685.344 721.222 C 685.344 721.373 685.467 721.495 685.617 721.495 L 688.977 721.495 C 689.128 721.495 689.25 721.373 689.25 721.222 L 689.25 719.737 L 690.149 719.737 C 690.3 719.737 690.422 719.615 690.422 719.464 L 690.422 713.214 C 690.421 712.2 689.6 711.379 688.586 711.378 L 688.586 711.378 Z  M 683.912 711.925 L 688.586 711.925 C 689.298 711.926 689.875 712.502 689.875 713.214 L 689.875 717.384 L 685.118 717.384 C 685.844 715.487 685.37 713.34 683.912 711.925 Z  M 670.969 713.214 C 670.97 712.502 671.547 711.926 672.258 711.925 L 676.932 711.925 C 675.474 713.34 675 715.487 675.727 717.384 L 670.969 717.384 L 670.969 713.214 Z  M 674.953 720.948 L 672.141 720.948 L 672.141 719.737 L 674.953 719.737 L 674.953 720.948 Z  M 676.933 719.191 L 670.969 719.191 L 670.969 717.931 L 675.979 717.931 C 676.229 718.398 676.551 718.823 676.933 719.191 L 676.933 719.191 Z  M 677.79 719.194 C 676.445 718.223 675.746 716.589 675.972 714.946 C 676.197 713.303 677.31 711.918 678.866 711.344 C 679.364 711.16 679.891 711.065 680.422 711.066 C 682.589 711.065 684.447 712.612 684.84 714.743 C 685.233 716.874 684.049 718.982 682.024 719.754 C 680.609 720.296 679.016 720.085 677.79 719.194 Z  M 688.703 720.948 L 685.891 720.948 L 685.891 719.737 L 688.703 719.737 L 688.703 720.948 Z  M 689.875 719.191 L 683.912 719.191 C 684.293 718.823 684.615 718.398 684.866 717.931 L 689.875 717.931 L 689.875 719.191 Z " fill="rgb(0,0,0)"/><path d=" M 687.141 716.56 L 688.534 716.56 C 688.685 716.56 688.808 716.438 688.808 716.287 C 688.808 716.136 688.685 716.013 688.534 716.013 L 687.141 716.013 C 686.99 716.013 686.867 716.136 686.867 716.287 C 686.867 716.438 686.99 716.56 687.141 716.56 Z " fill="rgb(0,0,0)"/></g></svg>