<?xml version="1.0" standalone="no"?><!-- Generator: Gravit.io --><svg xmlns="http://www.w3.org/2000/svg" xmlns:xlink="http://www.w3.org/1999/xlink" style="isolation:isolate" viewBox="833 661.15 20 20" width="20" height="20"><g><path d=" M 840.661 665.708 L 841.833 665.708 C 841.833 665.466 841.878 665.375 841.961 665.21 C 842.067 664.998 842.212 664.707 842.212 664.189 C 842.212 663.671 842.067 663.38 841.961 663.167 C 841.878 663.002 841.833 662.911 841.833 662.669 C 841.833 662.428 841.878 662.337 841.961 662.172 C 842.067 661.959 842.212 661.668 842.212 661.15 L 841.04 661.15 C 841.04 661.392 840.995 661.483 840.912 661.648 C 840.806 661.86 840.661 662.151 840.661 662.669 C 840.661 663.188 840.806 663.479 840.912 663.691 C 840.995 663.856 841.04 663.947 841.04 664.189 C 841.04 664.43 840.995 664.521 840.912 664.686 C 840.806 664.899 840.661 665.19 840.661 665.708 Z " fill="rgb(0,0,0)"/><path d=" M 843.397 665.708 L 844.569 665.708 C 844.569 665.466 844.614 665.375 844.697 665.21 C 844.803 664.998 844.948 664.707 844.948 664.189 C 844.948 663.671 844.803 663.38 844.697 663.167 C 844.614 663.002 844.569 662.911 844.569 662.669 C 844.569 662.428 844.614 662.337 844.697 662.172 C 844.803 661.959 844.948 661.668 844.948 661.15 L 843.776 661.15 C 843.776 661.392 843.731 661.483 843.648 661.648 C 843.542 661.86 843.397 662.151 843.397 662.669 C 843.397 663.188 843.542 663.479 843.648 663.691 C 843.731 663.856 843.776 663.947 843.776 664.189 C 843.776 664.43 843.731 664.521 843.648 664.686 C 843.542 664.899 843.397 665.19 843.397 665.708 Z " fill="rgb(0,0,0)"/><path d=" M 846.133 665.708 L 847.305 665.708 C 847.305 665.466 847.35 665.375 847.433 665.21 C 847.539 664.998 847.684 664.707 847.684 664.189 C 847.684 663.671 847.539 663.38 847.433 663.167 C 847.35 663.002 847.305 662.911 847.305 662.669 C 847.305 662.428 847.35 662.337 847.433 662.172 C 847.539 661.959 847.684 661.668 847.684 661.15 L 846.513 661.15 C 846.513 661.392 846.467 661.483 846.385 661.648 C 846.278 661.86 846.133 662.151 846.133 662.669 C 846.133 663.188 846.278 663.479 846.385 663.691 C 846.467 663.856 846.513 663.947 846.513 664.189 C 846.513 664.43 846.467 664.521 846.385 664.686 C 846.278 664.899 846.133 665.19 846.133 665.708 Z " fill="rgb(0,0,0)"/><path d=" M 840.839 666.881 C 840.243 666.881 839.758 667.366 839.758 667.962 L 839.758 680.069 C 839.758 680.665 840.243 681.15 840.839 681.15 C 841.435 681.15 841.92 680.665 841.92 680.069 L 841.92 667.962 C 841.92 667.366 841.435 666.881 840.839 666.881 Z " fill="rgb(0,0,0)"/><path d=" M 844.173 666.881 C 843.577 666.881 843.092 667.366 843.092 667.962 L 843.092 680.069 C 843.092 680.665 843.577 681.15 844.173 681.15 C 844.769 681.15 845.253 680.665 845.253 680.069 L 845.253 667.962 C 845.253 667.366 844.769 666.881 844.173 666.881 Z " fill="rgb(0,0,0)"/><path d=" M 847.506 666.881 C 846.91 666.881 846.425 667.366 846.425 667.962 L 846.425 680.069 C 846.425 680.665 846.91 681.15 847.506 681.15 C 848.102 681.15 848.587 680.665 848.587 680.069 L 848.587 667.962 C 848.587 667.366 848.102 666.881 847.506 666.881 Z " fill="rgb(0,0,0)"/><path d=" M 836.425 672.858 L 836.425 680.069 C 836.425 680.665 836.91 681.15 837.506 681.15 C 838.102 681.15 838.586 680.665 838.586 680.069 L 838.586 667.962 C 838.586 667.366 838.102 666.881 837.506 666.881 C 836.91 666.881 836.425 667.366 836.425 667.962 L 836.425 669.341 L 834.173 669.341 L 834.173 670.514 L 833 670.514 L 833 671.686 L 834.173 671.686 L 834.173 672.858 L 836.425 672.858 Z " fill="rgb(0,0,0)"/><path d=" M 851.92 669.341 L 851.92 667.962 C 851.92 667.366 851.436 666.881 850.84 666.881 C 850.244 666.881 849.759 667.366 849.759 667.962 L 849.759 680.069 C 849.759 680.665 850.244 681.15 850.84 681.15 C 851.436 681.15 851.92 680.665 851.92 680.069 L 851.92 670.513 L 853 670.513 L 853 669.341 L 851.92 669.341 Z " fill="rgb(0,0,0)"/></g></svg>