<svg id="Capa_1" enable-background="new 0 0 512.008 512.008" height="512" viewBox="0 0 512.008 512.008" width="512" xmlns="http://www.w3.org/2000/svg"><path d="m345.587 447.666c35.039 0 67.83-17.224 87.718-46.074 5.466-7.929-6.877-16.454-12.35-8.514-17.088 24.789-45.264 39.587-75.369 39.587-9.629.001-9.643 15.001.001 15.001z"/><path d="m182.504 103.238v149.5c0 4.142 3.358 7.5 7.5 7.5s7.5-3.358 7.5-7.5v-149.5c0-4.142-3.358-7.5-7.5-7.5s-7.5 3.358-7.5 7.5z"/><path d="m329.171 103.238v149.5c0 4.142 3.358 7.5 7.5 7.5s7.5-3.358 7.5-7.5v-149.5c0-4.142-3.358-7.5-7.5-7.5s-7.5 3.358-7.5 7.5z"/><path d="m410.004 208.738c-4.142 0-7.5 3.358-7.5 7.5v36.5c0 4.142 3.358 7.5 7.5 7.5s7.5-3.358 7.5-7.5v-36.5c0-4.142-3.358-7.5-7.5-7.5z"/><path d="m417.504 103.238c0-4.142-3.358-7.5-7.5-7.5s-7.5 3.358-7.5 7.5v71c0 4.142 3.358 7.5 7.5 7.5s7.5-3.358 7.5-7.5z"/><path d="m270.504 103.238c0-4.142-3.358-7.5-7.5-7.5s-7.5 3.358-7.5 7.5v25.5c0 4.142 3.358 7.5 7.5 7.5s7.5-3.358 7.5-7.5z"/><path d="m263.004 163.238c-4.142 0-7.5 3.358-7.5 7.5v82c0 4.142 3.358 7.5 7.5 7.5s7.5-3.358 7.5-7.5v-82c0-4.142-3.358-7.5-7.5-7.5z"/><path d="m504.504 4.238c-4.142 0-7.5 3.358-7.5 7.5v15.5h-25.214v-1.453c0-14.218-11.567-25.785-25.786-25.785s-25.786 11.567-25.786 25.786v1.453h-21.428v-1.453c0-14.219-11.567-25.786-25.786-25.786s-25.786 11.567-25.786 25.786v1.453h-21.428v-1.453c0-14.219-11.567-25.786-25.786-25.786s-25.786 11.567-25.786 25.786v1.453h-21.428v-1.453c0-14.219-11.567-25.786-25.786-25.786s-25.786 11.567-25.786 25.786v1.453h-21.428v-1.453c0-14.219-11.567-25.786-25.786-25.786s-25.786 11.567-25.786 25.786v1.453h-113.214v-16c0-9.63-15-9.644-15 0v47c0 9.63 15 9.644 15 0v-16h113.214v241.147h-108.226c-11.021 0-19.988 8.966-19.988 19.988v.278c0 11.021 8.966 19.988 19.988 19.988h.512v13.569c0 73.021 54.15 133.623 124.401 143.784l-18.205 18.205c-6.714 6.712 3.739 17.474 10.606 10.606l27.318-27.318c.391.003.779.015 1.17.015h175.602l27.303 27.303c6.764 6.764 17.398-3.816 10.606-10.606l-17.532-17.532c72.823-7.791 129.729-69.599 129.729-144.456v-13.569h.512c11.021 0 19.988-8.966 19.988-19.988v-.278c0-11.021-8.966-19.988-19.988-19.988h-20.224v-140.387c0-9.63-15-9.644-15 0v140.385h-313.571v-257.6c0-13.879 21.571-13.974 21.571 0v1.453h-7.286c-9.63 0-9.644 15 0 15h7.286v6.928c0 33.247 51.571 33.247 51.571 0v-17.19c0-.495-.051-.979-.143-1.447v-4.743c0-5.947 4.838-10.786 10.786-10.786s10.786 4.838 10.786 10.786v1.453h-4.286c-9.63 0-9.644 15 0 15h4.286v6.928c0 33.247 51.571 33.247 51.571 0v-17.19c0-.495-.051-.979-.143-1.447v-4.743c0-5.947 4.838-10.786 10.786-10.786s10.786 4.838 10.786 10.786v1.453h-5.286c-9.63 0-9.644 15 0 15h5.286v6.928c0 33.247 51.571 33.247 51.571 0v-17.19c0-.495-.051-.979-.143-1.447v-4.743c0-5.947 4.838-10.786 10.786-10.786s10.786 4.838 10.786 10.786v1.453h-7.286c-9.63 0-9.644 15 0 15h7.286v6.928c0 33.247 51.571 33.247 51.571 0v-17.19c0-.495-.051-.979-.143-1.447v-4.743c0-5.947 4.838-10.786 10.786-10.786s10.786 4.838 10.786 10.786v1.453h-7.286c-9.63 0-9.644 15 0 15h7.286v59.758c0 9.63 15 9.644 15 0v-59.762h25.214v16.5c0 9.63 15 9.644 15 0v-47c0-4.142-3.358-7.5-7.5-7.5zm-7.5 299.135c.038 2.822-2.069 5.266-4.988 5.266l-339.012-.139c-9.721 0-9.803 15.139 0 15.139h323.5v13.569c0 71.843-58.449 130.292-130.292 130.292h-180.416c-71.843 0-130.292-58.449-130.292-130.292v-13.569h72.5c9.721 0 9.803-15.139 0-15.139l-88.012.139c-6.548 0-6.548-10.254 0-10.254h472.024c2.751 0 4.988 2.238 4.988 4.988zm-306.428-243.421c-5.947 0-10.786-4.838-10.786-10.786v-6.928h21.571v6.928c0 5.948-4.838 10.786-10.785 10.786zm73 0c-5.947 0-10.786-4.838-10.786-10.786v-6.928h21.571v6.928c0 5.948-4.838 10.786-10.785 10.786zm73 0c-5.947 0-10.786-4.838-10.786-10.786v-6.928h21.571v6.928c0 5.948-4.838 10.786-10.785 10.786zm73 0c-5.947 0-10.786-4.838-10.786-10.786v-6.928h21.571v6.928c0 5.948-4.838 10.786-10.785 10.786z"/></svg>