<svg id="Capa_1" enable-background="new 0 0 512 512" height="512" viewBox="0 0 512 512" width="512" xmlns="http://www.w3.org/2000/svg"><path d="m325.593 119.503v-24.464h-30.013v24.464h-23.573v-64.479c0-13.791 11.22-25.011 25.011-25.011s25.011 11.22 25.011 25.011v10.004h30.013v-10.004c0-30.34-24.684-55.024-55.024-55.024s-55.024 24.684-55.024 55.024v64.479h-22.01v-24.464h-30.013v24.464h-99.058v15.007c0 64.869 45.969 119.196 107.039 132.137l-20.278 245.353h156.653l-20.278-245.353c61.07-12.941 107.039-67.269 107.039-132.137v-15.007zm-115.323 362.484 17.529-212.092h56.402l17.529 212.092zm75.746-242.42h-60.032c-52.834 0-96.685-39.206-103.989-90.051h268.01c-7.304 50.845-51.155 90.051-103.989 90.051z"/></svg>