<svg height="512pt" viewBox="-14 0 512 512.00099" width="512pt" xmlns="http://www.w3.org/2000/svg"><path d="m405.175781 72.375-15.585937 15.585938"/><path d="m82.449219 87.960938-15.582031-15.585938"/><path d="m427.214844 368.410156-15.585938-15.585937"/><path d="m60.410156 352.824219-15.585937 15.585937"/><path d="m241.527344 42.246094c5.578125 0 10.101562-4.523438 10.101562-10.101563v-22.042969c0-5.578124-4.523437-10.101562-10.101562-10.101562s-10.101563 4.523438-10.101563 10.101562v22.042969c0 5.578125 4.523438 10.101563 10.101563 10.101563zm0 0"/><path d="m472.957031 203.878906h-22.039062c-5.582031 0-10.101563 4.519532-10.101563 10.101563 0 5.578125 4.519532 10.101562 10.101563 10.101562h22.039062c5.582031 0 10.101563-4.523437 10.101563-10.101562 0-5.582031-4.519532-10.101563-10.101563-10.101563zm0 0"/><path d="m42.246094 213.980469c0-5.582031-4.523438-10.101563-10.101563-10.101563h-22.042969c-5.578124 0-10.101562 4.519532-10.101562 10.101563 0 5.578125 4.523438 10.101562 10.101562 10.101562h22.042969c5.578125 0 10.101563-4.523437 10.101563-10.101562zm0 0"/><path d="m389.589844 98.0625c2.585937 0 5.171875-.984375 7.144531-2.957031l15.582031-15.585938c3.945313-3.945312 3.945313-10.34375 0-14.289062-3.945312-3.945313-10.339844-3.945313-14.285156 0l-15.585938 15.585937c-3.945312 3.945313-3.945312 10.34375 0 14.289063 1.972657 1.972656 4.558594 2.957031 7.144532 2.957031zm0 0"/><path d="m89.59375 80.816406-15.582031-15.585937c-3.945313-3.941407-10.34375-3.941407-14.289063 0-3.945312 3.945312-3.945312 10.34375 0 14.289062l15.585938 15.585938c1.972656 1.972656 4.558594 2.960937 7.140625 2.960937 2.585937 0 5.171875-.988281 7.144531-2.960937 3.945312-3.945313 3.945312-10.34375 0-14.289063zm0 0"/><path d="m418.773438 345.683594c-3.945313-3.945313-10.34375-3.945313-14.289063 0-3.945313 3.945312-3.945313 10.339844 0 14.285156l15.585937 15.585938c1.972657 1.972656 4.558594 2.960937 7.144532 2.960937 2.585937 0 5.171875-.988281 7.144531-2.960937 3.945313-3.945313 3.945313-10.339844 0-14.289063zm0 0"/><path d="m53.265625 345.683594-15.585937 15.582031c-3.941407 3.945313-3.941407 10.34375 0 14.289063 1.976562 1.972656 4.558593 2.960937 7.144531 2.960937 2.585937 0 5.171875-.988281 7.144531-2.960937l15.585938-15.585938c3.945312-3.945312 3.945312-10.339844 0-14.285156-3.945313-3.945313-10.34375-3.945313-14.289063 0zm0 0"/><path d="m241.53125 83.371094c-31.5625 0-62.039062 9.273437-88.132812 26.8125-4.628907 3.113281-5.859376 9.386718-2.746094 14.019531 3.109375 4.628906 9.386718 5.859375 14.019531 2.75 22.75-15.292969 49.324219-23.375 76.859375-23.375 76.070312 0 137.953125 61.886719 137.953125 137.953125 0 72.324219-55.941406 131.824219-126.832031 137.507812v-63.109374c.015625-.46875.03125-1.289063 0-2.425782v-23.03125c26.207031-.246094 47.992187-7.976562 64.855468-23.078125 31.214844-27.953125 33.527344-70.761719 33.613282-72.574219.136718-2.960937-1.035156-5.835937-3.207032-7.855468-2.171874-2.023438-5.117187-2.988282-8.066406-2.640625-57.140625 6.722656-83.324218 32.148437-95.230468 52.296875-6.640626 11.238281-9.675782 22.109375-11.046876 30.246094-1.558593-1.730469-3.226562-3.449219-5.050781-5.132813-16.882812-15.605469-53.910156-24.539063-58.074219-25.503906-.074218-.019531-.148437-.035157-.222656-.050781-1.300781-.269532-1.914062-.421876-2.332031-.527344-1.613281-.402344-2.285156-.488282-5.582031-.875-2.945313-.347656-5.894532.617187-8.066406 2.640625-2.171876 2.019531-3.34375 4.894531-3.207032 7.855469.070313 1.527343 2.023438 37.644531 28.382813 61.253906 13.898437 12.445312 31.703125 18.972656 53.03125 19.503906v53.152344c-71.851563-4.695313-128.875-64.632813-128.875-137.648438 0-21.789062 4.929687-42.628906 14.652343-61.941406 2.507813-4.984375.503907-11.058594-4.480468-13.566406-4.984375-2.511719-11.058594-.503906-13.566406 4.480468-11.152344 22.15625-16.808594 46.054688-16.808594 71.027344 0 56.417969 29.699218 106.023438 74.28125 134.027344v60.257812c0 42.007813 34.175781 76.179688 76.183594 76.179688h13.660156c42.007812 0 76.183594-34.175781 76.183594-76.179688v-59.175781c45.542968-27.796875 76.015624-77.960937 76.015624-135.109375-.003906-87.214844-70.953124-158.164062-158.164062-158.164062zm20.480469 163.53125c12.320312-20.847656 34.824219-34.4375 67-40.507813-2.769531 12.589844-9.414063 32.074219-25.109375 46.058594-12.84375 11.449219-29.773438 17.421875-50.425782 17.816406 1.027344-6.109375 3.34375-14.582031 8.535157-23.367187zm-68.992188 44.679687c-11.261719-10.019531-16.746093-23.609375-19.394531-33.636719 12.582031 3.585938 32.34375 10.460938 41.179688 18.625 10.886718 10.066407 15.085937 21.445313 16.695312 29.222657-15.699219-.664063-28.613281-5.425781-38.480469-14.210938zm110.453125 136.617188h-63.710937c-5.582031 0-10.105469 4.523437-10.105469 10.101562s4.523438 10.101563 10.105469 10.101563h62.265625c-5.726563 24.824218-27.996094 43.390625-54.53125 43.390625h-13.664063c-30.863281 0-55.976562-25.109375-55.976562-55.972657v-49.523437c19.492187 8.605469 41.035156 13.398437 63.675781 13.398437 21.96875 0 42.90625-4.507812 61.941406-12.640624zm0 0"/><path d="m205.195312 430.371094-.277343-.183594c-4.675781-3.042969-10.9375-1.71875-13.980469 2.957031s-1.71875 10.9375 2.957031 13.980469l.28125.179688c1.703125 1.109374 3.613281 1.636718 5.5 1.636718 3.304688 0 6.542969-1.617187 8.476563-4.59375 3.042968-4.675781 1.722656-10.933594-2.957032-13.976562zm0 0"/><path d="m125.324219 152.285156.28125.183594c1.699219 1.097656 3.601562 1.625 5.484375 1.625 3.308594 0 6.554687-1.628906 8.488281-4.613281 3.035156-4.679688 1.695313-10.9375-2.984375-13.96875l-.28125-.183594c-4.683594-3.035156-10.9375-1.699219-13.972656 2.984375s-1.695313 10.9375 2.984375 13.972656zm0 0"/></svg>