<?xml version="1.0" standalone="no"?><!-- Generator: Gravit.io --><svg xmlns="http://www.w3.org/2000/svg" xmlns:xlink="http://www.w3.org/1999/xlink" style="isolation:isolate" viewBox="115.855 707.463 17.25 18.283" width="17.25" height="18.283"><g><line x1="130.324" y1="710.047" x2="129.767" y2="710.604"/><line x1="118.799" y1="710.604" x2="118.243" y2="710.047"/><line x1="131.111" y1="720.618" x2="130.554" y2="720.062"/><line x1="118.012" y1="720.062" x2="117.456" y2="720.618"/><path d=" M 124.48 708.971 C 124.679 708.971 124.841 708.81 124.841 708.61 L 124.841 707.823 C 124.841 707.624 124.679 707.463 124.48 707.463 C 124.281 707.463 124.119 707.624 124.119 707.823 L 124.119 708.61 C 124.119 708.81 124.281 708.971 124.48 708.971 Z " fill="rgb(0,0,0)"/><path d=" M 132.744 714.743 L 131.957 714.743 C 131.758 714.743 131.597 714.904 131.597 715.104 C 131.597 715.303 131.758 715.464 131.957 715.464 L 132.744 715.464 C 132.944 715.464 133.105 715.303 133.105 715.104 C 133.105 714.904 132.944 714.743 132.744 714.743 Z " fill="rgb(0,0,0)"/><path d=" M 117.364 715.104 C 117.364 714.904 117.202 714.743 117.003 714.743 L 116.216 714.743 C 116.017 714.743 115.855 714.904 115.855 715.104 C 115.855 715.303 116.017 715.464 116.216 715.464 L 117.003 715.464 C 117.202 715.464 117.364 715.303 117.364 715.104 Z " fill="rgb(0,0,0)"/><path d=" M 129.767 710.964 C 129.86 710.964 129.952 710.929 130.022 710.859 L 130.579 710.302 C 130.72 710.161 130.72 709.933 130.579 709.792 C 130.438 709.651 130.21 709.651 130.069 709.792 L 129.512 710.348 C 129.371 710.489 129.371 710.718 129.512 710.859 C 129.583 710.929 129.675 710.964 129.767 710.964 Z " fill="rgb(0,0,0)"/><path d=" M 119.054 710.348 L 118.498 709.792 C 118.357 709.651 118.129 709.651 117.988 709.792 C 117.847 709.933 117.847 710.161 117.988 710.302 L 118.544 710.859 C 118.615 710.929 118.707 710.964 118.799 710.964 C 118.892 710.964 118.984 710.929 119.054 710.859 C 119.195 710.718 119.195 710.489 119.054 710.348 Z " fill="rgb(0,0,0)"/><path d=" M 130.809 719.807 C 130.668 719.666 130.44 719.666 130.299 719.807 C 130.158 719.948 130.158 720.176 130.299 720.317 L 130.856 720.874 C 130.926 720.944 131.018 720.979 131.111 720.979 C 131.203 720.979 131.295 720.944 131.366 720.874 C 131.507 720.733 131.507 720.504 131.366 720.363 L 130.809 719.807 Z " fill="rgb(0,0,0)"/><path d=" M 117.757 719.807 L 117.201 720.363 C 117.06 720.504 117.06 720.733 117.201 720.874 C 117.271 720.944 117.363 720.979 117.456 720.979 C 117.548 720.979 117.64 720.944 117.711 720.874 L 118.267 720.317 C 118.408 720.176 118.408 719.948 118.267 719.807 C 118.126 719.666 117.898 719.666 117.757 719.807 L 117.757 719.807 Z " fill="rgb(0,0,0)"/><path d=" M 124.48 710.44 C 123.353 710.44 122.265 710.771 121.333 711.397 C 121.168 711.508 121.124 711.732 121.235 711.898 C 121.346 712.063 121.57 712.107 121.735 711.996 C 122.548 711.45 123.497 711.161 124.48 711.161 C 127.197 711.161 129.406 713.371 129.406 716.088 C 129.406 718.67 127.409 720.795 124.877 720.998 L 124.156 721.003 C 121.59 720.835 119.554 718.695 119.554 716.088 C 119.554 715.31 119.73 714.565 120.077 713.876 C 120.166 713.698 120.095 713.481 119.917 713.391 C 119.739 713.302 119.522 713.373 119.432 713.551 C 119.034 714.343 118.832 715.196 118.832 716.088 C 118.832 718.102 119.893 719.874 121.485 720.874 L 121.485 723.026 C 121.485 724.526 122.705 725.746 124.205 725.746 L 124.693 725.746 C 126.193 725.746 127.414 724.526 127.414 723.026 L 127.414 720.912 C 129.04 719.92 130.128 718.128 130.128 716.088 C 130.128 712.973 127.594 710.44 124.48 710.44 L 124.48 710.44 Z  M 126.692 722.753 L 124.417 722.753 C 124.218 722.753 124.056 722.915 124.056 723.114 C 124.056 723.313 124.218 723.475 124.417 723.475 L 126.64 723.475 C 126.436 724.361 125.641 725.024 124.693 725.024 L 124.205 725.024 C 123.103 725.024 122.206 724.128 122.206 723.026 L 122.206 721.257 C 122.902 721.564 123.672 721.736 124.48 721.736 C 125.265 721.736 126.012 721.575 126.692 721.284 L 126.692 722.753 Z " fill-rule="evenodd" fill="rgb(0,0,0)"/><path d=" M 123.182 722.831 L 123.173 722.824 C 123.006 722.716 122.782 722.763 122.673 722.93 C 122.565 723.097 122.612 723.321 122.779 723.429 L 122.789 723.436 C 122.85 723.475 122.918 723.494 122.985 723.494 C 123.103 723.494 123.219 723.436 123.288 723.33 C 123.397 723.163 123.35 722.94 123.182 722.831 L 123.182 722.831 Z " fill="rgb(0,0,0)"/><path d=" M 120.33 712.901 L 120.34 712.907 C 120.401 712.946 120.469 712.965 120.536 712.965 C 120.654 712.965 120.77 712.907 120.839 712.8 C 120.948 712.633 120.9 712.41 120.733 712.302 L 120.723 712.295 C 120.555 712.187 120.332 712.234 120.224 712.402 C 120.115 712.569 120.163 712.792 120.33 712.901 Z " fill="rgb(0,0,0)"/></g></svg>