<?xml version="1.0" standalone="no"?><!-- Generator: Gravit.io --><svg xmlns="http://www.w3.org/2000/svg" xmlns:xlink="http://www.w3.org/1999/xlink" style="isolation:isolate" viewBox="29.5 620.527 35 34.945" width="35" height="34.945"><path d=" M 48.963 655.473 L 45.01 655.473 C 43.724 655.473 42.671 654.419 42.671 653.134 L 42.671 652.204 C 42.671 652.122 42.63 651.807 42.302 651.684 C 42.261 651.67 42.233 651.657 42.206 651.643 C 41.645 651.452 41.085 651.219 40.565 650.945 C 40.538 650.932 40.496 650.918 40.469 650.904 C 40.373 650.904 40.086 651.055 39.922 651.178 L 39.348 651.752 C 38.431 652.669 36.954 652.669 36.038 651.752 L 33.22 648.949 C 32.304 648.032 32.304 646.555 33.22 645.639 L 33.74 645.119 C 34.137 644.722 33.904 644.189 33.904 644.175 C 33.877 644.121 33.849 644.066 33.836 643.997 C 33.672 643.628 33.507 643.259 33.384 642.89 C 33.371 642.849 33.343 642.821 33.33 642.78 C 33.138 642.315 32.509 642.301 32.482 642.301 L 31.839 642.301 C 30.553 642.301 29.5 641.248 29.5 639.963 L 29.5 636.01 C 29.5 634.724 30.553 633.671 31.839 633.671 L 32.482 633.671 C 32.495 633.671 33.138 633.657 33.33 633.192 C 33.343 633.151 33.357 633.11 33.384 633.083 C 33.521 632.714 33.672 632.344 33.836 631.975 C 33.849 631.92 33.877 631.866 33.904 631.811 C 33.931 631.729 34.123 631.25 33.74 630.867 L 33.22 630.348 C 32.304 629.431 32.304 627.954 33.22 627.038 L 36.024 624.234 C 36.94 623.318 38.418 623.318 39.334 624.234 L 39.908 624.808 C 40.1 624.945 40.387 625.096 40.496 625.068 C 40.51 625.055 40.524 625.055 40.538 625.055 C 41.071 624.795 41.632 624.548 42.206 624.357 C 42.233 624.343 42.275 624.33 42.302 624.316 C 42.63 624.193 42.657 623.865 42.671 623.783 L 42.671 622.866 C 42.671 621.58 43.724 620.527 45.01 620.527 L 48.963 620.527 C 50.248 620.527 51.301 621.58 51.301 622.866 L 51.301 623.796 C 51.301 623.878 51.343 624.193 51.671 624.316 C 51.712 624.33 51.739 624.343 51.767 624.357 C 52.341 624.562 52.888 624.795 53.421 625.055 C 53.449 625.068 53.476 625.082 53.517 625.096 C 53.599 625.096 53.873 624.959 54.078 624.822 L 54.652 624.248 C 55.569 623.331 57.046 623.331 57.962 624.248 L 60.766 627.051 C 61.682 627.968 61.682 629.445 60.766 630.361 L 60.246 630.881 C 59.877 631.264 60.055 631.743 60.096 631.838 C 60.11 631.879 60.137 631.934 60.151 631.975 C 60.328 632.344 60.479 632.727 60.616 633.097 C 60.629 633.138 60.657 633.165 60.67 633.206 C 60.862 633.671 61.491 633.685 61.518 633.685 L 62.161 633.685 C 63.447 633.685 64.5 634.738 64.5 636.024 L 64.5 639.976 C 64.5 641.262 63.447 642.315 62.161 642.315 L 61.518 642.315 C 61.505 642.315 60.862 642.329 60.67 642.794 C 60.658 642.833 60.639 642.87 60.616 642.903 C 60.479 643.273 60.328 643.642 60.164 644.011 C 60.151 644.066 60.123 644.121 60.096 644.189 C 60.069 644.271 59.877 644.75 60.26 645.133 L 60.78 645.652 C 61.217 646.09 61.464 646.678 61.464 647.307 C 61.464 647.936 61.217 648.525 60.78 648.962 L 57.976 651.766 C 57.06 652.682 55.582 652.682 54.666 651.766 L 54.092 651.192 C 53.9 651.055 53.613 650.918 53.504 650.932 C 53.49 650.945 53.462 650.945 53.449 650.959 C 52.915 651.219 52.355 651.452 51.794 651.657 C 51.767 651.67 51.725 651.684 51.698 651.698 C 51.343 651.835 51.329 652.217 51.329 652.217 L 51.329 653.148 C 51.301 654.419 50.248 655.473 48.963 655.473 L 48.963 655.473 Z  M 43.3 649.879 C 44.408 650.453 44.709 651.575 44.709 652.19 L 44.709 653.12 C 44.709 653.271 44.846 653.407 44.996 653.407 L 48.949 653.407 C 49.099 653.407 49.236 653.271 49.236 653.12 L 49.236 652.19 C 49.236 651.575 49.537 650.439 50.659 649.865 C 50.727 649.81 50.823 649.769 50.905 649.742 C 51.534 649.537 52.149 649.277 52.724 648.976 C 52.888 648.894 53.066 648.839 53.244 648.867 C 54.31 648.743 55.268 649.509 55.391 649.605 C 55.418 649.632 55.446 649.646 55.459 649.674 L 56.075 650.289 C 56.184 650.398 56.376 650.398 56.485 650.289 L 59.289 647.485 C 59.357 647.417 59.371 647.321 59.371 647.28 C 59.371 647.239 59.357 647.143 59.289 647.075 L 58.769 646.555 C 57.798 645.584 57.839 644.367 58.085 643.601 C 58.099 643.505 58.126 643.409 58.167 643.327 C 58.373 642.89 58.564 642.452 58.715 642.014 C 58.742 641.919 58.797 641.836 58.851 641.754 C 59.48 640.551 60.766 640.223 61.491 640.236 L 62.134 640.236 C 62.284 640.236 62.421 640.099 62.421 639.949 L 62.421 635.996 C 62.421 635.846 62.284 635.709 62.134 635.709 L 61.477 635.709 C 60.766 635.709 59.467 635.381 58.851 634.177 C 58.797 634.109 58.756 634.013 58.728 633.931 C 58.578 633.481 58.395 633.042 58.181 632.618 C 58.14 632.522 58.113 632.427 58.085 632.331 C 57.853 631.579 57.812 630.361 58.783 629.39 L 59.303 628.87 C 59.412 628.761 59.412 628.57 59.303 628.46 L 56.499 625.656 C 56.389 625.547 56.198 625.547 56.089 625.656 L 55.473 626.272 L 55.405 626.34 C 55.282 626.436 54.324 627.202 53.257 627.079 C 53.08 627.092 52.902 627.051 52.738 626.956 C 52.163 626.655 51.561 626.395 50.919 626.19 C 50.823 626.162 50.741 626.121 50.659 626.067 C 49.551 625.492 49.25 624.371 49.25 623.742 L 49.25 622.811 C 49.25 622.661 49.113 622.524 48.963 622.524 L 45.01 622.524 C 44.86 622.524 44.723 622.661 44.723 622.811 L 44.723 623.742 C 44.723 624.357 44.422 625.492 43.3 626.067 C 43.232 626.121 43.136 626.162 43.054 626.19 C 42.425 626.395 41.809 626.655 41.235 626.956 C 41.071 627.038 40.893 627.079 40.715 627.079 C 39.648 627.188 38.691 626.436 38.568 626.34 C 38.541 626.313 38.513 626.299 38.5 626.272 L 37.884 625.656 C 37.775 625.547 37.583 625.547 37.474 625.656 L 34.67 628.46 C 34.561 628.57 34.561 628.761 34.67 628.87 L 35.19 629.39 C 36.174 630.375 36.12 631.592 35.874 632.344 C 35.86 632.44 35.833 632.522 35.792 632.618 C 35.586 633.046 35.403 633.484 35.244 633.931 C 35.217 634.027 35.162 634.109 35.108 634.191 C 34.479 635.394 33.152 635.709 32.468 635.709 L 31.825 635.709 C 31.675 635.709 31.538 635.846 31.538 635.996 L 31.538 639.949 C 31.538 640.099 31.675 640.236 31.825 640.236 L 32.482 640.236 C 33.193 640.236 34.492 640.564 35.108 641.768 C 35.162 641.836 35.203 641.932 35.231 642.014 C 35.381 642.452 35.559 642.89 35.778 643.327 C 35.819 643.423 35.846 643.519 35.86 643.614 C 36.092 644.367 36.147 645.584 35.162 646.555 L 34.643 647.075 C 34.533 647.184 34.533 647.376 34.643 647.485 L 37.446 650.289 C 37.556 650.398 37.747 650.398 37.857 650.289 L 38.472 649.674 L 38.541 649.605 C 38.664 649.509 39.621 648.743 40.688 648.867 C 40.866 648.853 41.044 648.894 41.208 648.976 C 41.782 649.277 42.398 649.537 43.027 649.742 C 43.15 649.783 43.232 649.824 43.3 649.879 L 43.3 649.879 Z  M 46.979 647.02 C 42.001 647.02 37.939 642.972 37.939 637.979 C 37.939 633.001 41.987 628.939 46.979 628.939 C 51.958 628.939 56.02 632.987 56.02 637.979 C 56.02 642.972 51.972 647.02 46.979 647.02 Z  M 46.979 631.004 C 43.123 631.004 39.99 634.136 39.99 637.993 C 39.99 641.85 43.123 644.982 46.979 644.982 C 50.836 644.982 53.969 641.85 53.969 637.993 C 53.969 634.136 50.836 631.004 46.979 631.004 Z " fill="rgb(129,178,202)"/></svg>